<mxfile host="Electron" modified="2023-09-16T21:21:14.579Z" agent="Mozilla/5.0 (Windows NT 10.0; Win64; x64) AppleWebKit/537.36 (KHTML, like Gecko) draw.io/21.6.8 Chrome/114.0.5735.289 Electron/25.5.0 Safari/537.36" etag="1aH31dcpYUYE3qtzqVVj" version="21.6.8" type="device">
  <diagram name="Page-1" id="9NBhNh5aN1B472JOQKi8">
    <mxGraphModel dx="1418" dy="820" grid="1" gridSize="10" guides="1" tooltips="1" connect="1" arrows="1" fold="1" page="1" pageScale="1" pageWidth="850" pageHeight="1100" math="0" shadow="0">
      <root>
        <mxCell id="0" />
        <mxCell id="1" parent="0" />
        <mxCell id="Y5P0Wscfw2FdqDRZ2x3u-1" value="" style="rounded=1;html=1;fontColor=#333333;fillColor=#f5f5f5;strokeColor=#666666;" vertex="1" parent="1">
          <mxGeometry x="130" y="110" width="250" height="490" as="geometry" />
        </mxCell>
        <mxCell id="Y5P0Wscfw2FdqDRZ2x3u-2" value="" style="ellipse;html=1;aspect=fixed;fillColor=#d5e8d4;strokeColor=#82b366;" vertex="1" parent="1">
          <mxGeometry x="215" y="140" width="80" height="80" as="geometry" />
        </mxCell>
        <mxCell id="Y5P0Wscfw2FdqDRZ2x3u-3" value="&lt;h1 style=&quot;font-size: 14px;&quot;&gt;&lt;font style=&quot;font-size: 14px;&quot;&gt;Nombre Apellido&lt;/font&gt;&lt;/h1&gt;&lt;p style=&quot;font-size: 14px;&quot;&gt;&lt;font style=&quot;font-size: 14px;&quot;&gt;(GRUPO AL QUE PERTENECE)&lt;/font&gt;&lt;/p&gt;&lt;p style=&quot;font-size: 14px;&quot;&gt;&lt;font style=&quot;font-size: 14px;&quot;&gt;NOMBRE DE USUARIO&lt;/font&gt;&lt;/p&gt;&lt;p style=&quot;font-size: 14px;&quot;&gt;&lt;font style=&quot;font-size: 14px;&quot;&gt;DIRECCION&lt;/font&gt;&lt;/p&gt;&lt;p style=&quot;font-size: 14px;&quot;&gt;&lt;font style=&quot;font-size: 14px;&quot;&gt;LOCALIDAD&lt;/font&gt;&lt;/p&gt;&lt;p style=&quot;font-size: 14px;&quot;&gt;&lt;font style=&quot;font-size: 14px;&quot;&gt;TELEFONO&lt;/font&gt;&lt;/p&gt;&lt;p style=&quot;font-size: 14px;&quot;&gt;&lt;font style=&quot;font-size: 14px;&quot;&gt;EMAIL&lt;/font&gt;&lt;/p&gt;" style="text;html=1;strokeColor=none;fillColor=none;spacing=5;spacingTop=-20;overflow=hidden;rounded=0;fontSize=14;fontColor=#000000;" vertex="1" parent="1">
          <mxGeometry x="150" y="260" width="220" height="200" as="geometry" />
        </mxCell>
        <mxCell id="Y5P0Wscfw2FdqDRZ2x3u-4" value="EDITAR PERFIL" style="rounded=1;html=1;fillColor=#dae8fc;strokeColor=#6c8ebf;fontColor=#000000;" vertex="1" parent="1">
          <mxGeometry x="157.5" y="470" width="195" height="50" as="geometry" />
        </mxCell>
        <mxCell id="Y5P0Wscfw2FdqDRZ2x3u-5" value="CERRAR SESION" style="rounded=1;html=1;fillColor=#f8cecc;strokeColor=#b85450;fontColor=#000000;" vertex="1" parent="1">
          <mxGeometry x="158.75" y="530" width="192.5" height="50" as="geometry" />
        </mxCell>
        <mxCell id="Y5P0Wscfw2FdqDRZ2x3u-6" value="" style="rounded=1;html=1;fillColor=#d5e8d4;strokeColor=#82b366;fontColor=#000000;" vertex="1" parent="1">
          <mxGeometry x="435" y="110" width="350" height="490" as="geometry" />
        </mxCell>
        <mxCell id="Y5P0Wscfw2FdqDRZ2x3u-7" value="&lt;font&gt;ESTUDIANTE&lt;/font&gt;" style="rounded=1;html=1;fillColor=#f8cecc;strokeColor=#b85450;fontColor=#000000;" vertex="1" parent="1">
          <mxGeometry x="130" y="20" width="650" height="60" as="geometry" />
        </mxCell>
        <mxCell id="Y5P0Wscfw2FdqDRZ2x3u-8" value="CURSO:&lt;br&gt;DESCRIPCION:&lt;br&gt;ESTADO: EN PROGRESO / FINALIZADO" style="rounded=0;html=1;fillColor=#ffe6cc;strokeColor=#d79b00;fontColor=#000000;" vertex="1" parent="1">
          <mxGeometry x="470" y="140" width="280" height="80" as="geometry" />
        </mxCell>
        <mxCell id="Y5P0Wscfw2FdqDRZ2x3u-9" value="EVALUACIONES: 8 - 7 - 7&lt;br&gt;PROMEDIO: 7.85&lt;br&gt;ASISTENCIAS 8 - INASISTENCIAS 2" style="shape=process;html=1;backgroundOutline=1;fontColor=#333333;fillColor=#f5f5f5;strokeColor=#666666;" vertex="1" parent="1">
          <mxGeometry x="470" y="220" width="280" height="60" as="geometry" />
        </mxCell>
        <mxCell id="Y5P0Wscfw2FdqDRZ2x3u-10" value="CURSO:&lt;br&gt;DESCRIPCION:&lt;br&gt;ESTADO: EN PROGRESO / FINALIZADO" style="rounded=0;html=1;fillColor=#ffe6cc;strokeColor=#d79b00;fontColor=#000000;" vertex="1" parent="1">
          <mxGeometry x="470" y="350" width="280" height="80" as="geometry" />
        </mxCell>
        <mxCell id="Y5P0Wscfw2FdqDRZ2x3u-11" value="EVALUACIONES: 8 - 7 - 7&lt;br&gt;PROMEDIO: 7.85&lt;br&gt;ASISTENCIAS 8 - INASISTENCIAS 2" style="shape=process;html=1;backgroundOutline=1;fontColor=#333333;fillColor=#f5f5f5;strokeColor=#666666;" vertex="1" parent="1">
          <mxGeometry x="470" y="430" width="280" height="60" as="geometry" />
        </mxCell>
        <mxCell id="Y5P0Wscfw2FdqDRZ2x3u-12" value="" style="rounded=1;html=1;fontColor=#333333;fillColor=#f5f5f5;strokeColor=#666666;" vertex="1" parent="1">
          <mxGeometry x="110" y="780" width="250" height="490" as="geometry" />
        </mxCell>
        <mxCell id="Y5P0Wscfw2FdqDRZ2x3u-13" value="" style="ellipse;html=1;aspect=fixed;fillColor=#d5e8d4;strokeColor=#82b366;" vertex="1" parent="1">
          <mxGeometry x="195" y="810" width="80" height="80" as="geometry" />
        </mxCell>
        <mxCell id="Y5P0Wscfw2FdqDRZ2x3u-14" value="EDITAR PERFIL" style="rounded=1;html=1;fillColor=#dae8fc;strokeColor=#6c8ebf;fontColor=#000000;" vertex="1" parent="1">
          <mxGeometry x="137.5" y="1140" width="195" height="50" as="geometry" />
        </mxCell>
        <mxCell id="Y5P0Wscfw2FdqDRZ2x3u-15" value="CERRAR SESION" style="rounded=1;html=1;fillColor=#f8cecc;strokeColor=#b85450;fontColor=#000000;" vertex="1" parent="1">
          <mxGeometry x="138.75" y="1200" width="192.5" height="50" as="geometry" />
        </mxCell>
        <mxCell id="Y5P0Wscfw2FdqDRZ2x3u-16" value="" style="rounded=1;html=1;fillColor=#d5e8d4;strokeColor=#82b366;fontColor=#000000;" vertex="1" parent="1">
          <mxGeometry x="415" y="780" width="350" height="490" as="geometry" />
        </mxCell>
        <mxCell id="Y5P0Wscfw2FdqDRZ2x3u-17" value="PROFESOR" style="rounded=1;html=1;fillColor=#f8cecc;strokeColor=#b85450;fontColor=#000000;" vertex="1" parent="1">
          <mxGeometry x="110" y="690" width="650" height="60" as="geometry" />
        </mxCell>
        <mxCell id="Y5P0Wscfw2FdqDRZ2x3u-18" value="CURSO:&lt;br&gt;CANTIDAD DE ALUMNOS&lt;br&gt;ESTADO: EN PROGRESO / FINALIZADO" style="rounded=0;html=1;fillColor=#ffe6cc;strokeColor=#d79b00;fontColor=#000000;" vertex="1" parent="1">
          <mxGeometry x="450" y="810" width="280" height="80" as="geometry" />
        </mxCell>
        <mxCell id="Y5P0Wscfw2FdqDRZ2x3u-19" value="VER CURSOS / AGREGAR NOTAS" style="shape=process;html=1;backgroundOutline=1;fontColor=#333333;fillColor=#f5f5f5;strokeColor=#666666;" vertex="1" parent="1">
          <mxGeometry x="450" y="890" width="280" height="60" as="geometry" />
        </mxCell>
        <mxCell id="Y5P0Wscfw2FdqDRZ2x3u-22" value="&lt;h1 style=&quot;font-size: 14px;&quot;&gt;&lt;font style=&quot;font-size: 14px;&quot;&gt;Nombre Apellido&lt;/font&gt;&lt;/h1&gt;&lt;p style=&quot;font-size: 14px;&quot;&gt;&lt;font style=&quot;font-size: 14px;&quot;&gt;(GRUPO AL QUE PERTENECE)&lt;/font&gt;&lt;/p&gt;&lt;p style=&quot;font-size: 14px;&quot;&gt;&lt;font style=&quot;font-size: 14px;&quot;&gt;NOMBRE DE USUARIO&lt;/font&gt;&lt;/p&gt;&lt;p style=&quot;font-size: 14px;&quot;&gt;&lt;font style=&quot;font-size: 14px;&quot;&gt;DIRECCION&lt;/font&gt;&lt;/p&gt;&lt;p style=&quot;font-size: 14px;&quot;&gt;&lt;font style=&quot;font-size: 14px;&quot;&gt;LOCALIDAD&lt;/font&gt;&lt;/p&gt;&lt;p style=&quot;font-size: 14px;&quot;&gt;&lt;font style=&quot;font-size: 14px;&quot;&gt;TELEFONO&lt;/font&gt;&lt;/p&gt;&lt;p style=&quot;font-size: 14px;&quot;&gt;&lt;font style=&quot;font-size: 14px;&quot;&gt;EMAIL&lt;/font&gt;&lt;/p&gt;" style="text;html=1;strokeColor=none;fillColor=none;spacing=5;spacingTop=-20;overflow=hidden;rounded=0;fontSize=14;fontColor=#000000;" vertex="1" parent="1">
          <mxGeometry x="137.5" y="910" width="212.5" height="200" as="geometry" />
        </mxCell>
        <mxCell id="Y5P0Wscfw2FdqDRZ2x3u-25" value="CURSO:&lt;br&gt;CANTIDAD DE ALUMNOS&lt;br&gt;ESTADO: EN PROGRESO / FINALIZADO" style="rounded=0;html=1;fillColor=#ffe6cc;strokeColor=#d79b00;fontColor=#000000;" vertex="1" parent="1">
          <mxGeometry x="450" y="955" width="280" height="80" as="geometry" />
        </mxCell>
        <mxCell id="Y5P0Wscfw2FdqDRZ2x3u-26" value="VER CURSOS / AGREGAR NOTAS" style="shape=process;html=1;backgroundOutline=1;fontColor=#333333;fillColor=#f5f5f5;strokeColor=#666666;" vertex="1" parent="1">
          <mxGeometry x="450" y="1035" width="280" height="60" as="geometry" />
        </mxCell>
        <mxCell id="Y5P0Wscfw2FdqDRZ2x3u-27" value="CURSO:&lt;br&gt;CANTIDAD DE ALUMNOS&lt;br&gt;ESTADO: EN PROGRESO / FINALIZADO" style="rounded=0;html=1;fillColor=#ffe6cc;strokeColor=#d79b00;fontColor=#000000;" vertex="1" parent="1">
          <mxGeometry x="450" y="1100" width="280" height="80" as="geometry" />
        </mxCell>
        <mxCell id="Y5P0Wscfw2FdqDRZ2x3u-28" value="VER CURSOS / AGREGAR NOTAS" style="shape=process;html=1;backgroundOutline=1;fontColor=#333333;fillColor=#f5f5f5;strokeColor=#666666;" vertex="1" parent="1">
          <mxGeometry x="450" y="1180" width="280" height="60" as="geometry" />
        </mxCell>
        <mxCell id="Y5P0Wscfw2FdqDRZ2x3u-42" value="" style="rounded=1;html=1;fontColor=#333333;fillColor=#f5f5f5;strokeColor=#666666;" vertex="1" parent="1">
          <mxGeometry x="127.5" y="1430" width="250" height="490" as="geometry" />
        </mxCell>
        <mxCell id="Y5P0Wscfw2FdqDRZ2x3u-43" value="" style="ellipse;html=1;aspect=fixed;fillColor=#d5e8d4;strokeColor=#82b366;" vertex="1" parent="1">
          <mxGeometry x="212.5" y="1460" width="80" height="80" as="geometry" />
        </mxCell>
        <mxCell id="Y5P0Wscfw2FdqDRZ2x3u-44" value="EDITAR PERFIL" style="rounded=1;html=1;fillColor=#dae8fc;strokeColor=#6c8ebf;fontColor=#000000;" vertex="1" parent="1">
          <mxGeometry x="155" y="1790" width="195" height="50" as="geometry" />
        </mxCell>
        <mxCell id="Y5P0Wscfw2FdqDRZ2x3u-45" value="CERRAR SESION" style="rounded=1;html=1;fillColor=#f8cecc;strokeColor=#b85450;fontColor=#000000;" vertex="1" parent="1">
          <mxGeometry x="156.25" y="1850" width="192.5" height="50" as="geometry" />
        </mxCell>
        <mxCell id="Y5P0Wscfw2FdqDRZ2x3u-46" value="" style="rounded=1;html=1;fillColor=#d5e8d4;strokeColor=#82b366;fontColor=#000000;" vertex="1" parent="1">
          <mxGeometry x="432.5" y="1430" width="350" height="490" as="geometry" />
        </mxCell>
        <mxCell id="Y5P0Wscfw2FdqDRZ2x3u-47" value="DIRECTOR" style="rounded=1;html=1;fillColor=#f8cecc;strokeColor=#b85450;fontColor=#000000;" vertex="1" parent="1">
          <mxGeometry x="127.5" y="1340" width="650" height="60" as="geometry" />
        </mxCell>
        <mxCell id="Y5P0Wscfw2FdqDRZ2x3u-48" value="CURSO:&lt;br&gt;CANTIDAD DE ALUMNOS&lt;br&gt;ESTADO: EN PROGRESO / FINALIZADO" style="rounded=0;html=1;fillColor=#ffe6cc;strokeColor=#d79b00;fontColor=#000000;" vertex="1" parent="1">
          <mxGeometry x="467.5" y="1460" width="280" height="80" as="geometry" />
        </mxCell>
        <mxCell id="Y5P0Wscfw2FdqDRZ2x3u-49" value="VER CURSOS / AGREGAR NOTAS" style="shape=process;html=1;backgroundOutline=1;fontColor=#333333;fillColor=#f5f5f5;strokeColor=#666666;" vertex="1" parent="1">
          <mxGeometry x="467.5" y="1540" width="280" height="60" as="geometry" />
        </mxCell>
        <mxCell id="Y5P0Wscfw2FdqDRZ2x3u-50" value="&lt;h1 style=&quot;font-size: 14px;&quot;&gt;&lt;font style=&quot;font-size: 14px;&quot;&gt;Nombre Apellido&lt;/font&gt;&lt;/h1&gt;&lt;p style=&quot;font-size: 14px;&quot;&gt;&lt;font style=&quot;font-size: 14px;&quot;&gt;(GRUPO AL QUE PERTENECE)&lt;/font&gt;&lt;/p&gt;&lt;p style=&quot;font-size: 14px;&quot;&gt;&lt;font style=&quot;font-size: 14px;&quot;&gt;NOMBRE DE USUARIO&lt;/font&gt;&lt;/p&gt;&lt;p style=&quot;font-size: 14px;&quot;&gt;&lt;font style=&quot;font-size: 14px;&quot;&gt;DIRECCION&lt;/font&gt;&lt;/p&gt;&lt;p style=&quot;font-size: 14px;&quot;&gt;&lt;font style=&quot;font-size: 14px;&quot;&gt;LOCALIDAD&lt;/font&gt;&lt;/p&gt;&lt;p style=&quot;font-size: 14px;&quot;&gt;&lt;font style=&quot;font-size: 14px;&quot;&gt;TELEFONO&lt;/font&gt;&lt;/p&gt;&lt;p style=&quot;font-size: 14px;&quot;&gt;&lt;font style=&quot;font-size: 14px;&quot;&gt;EMAIL&lt;/font&gt;&lt;/p&gt;" style="text;html=1;strokeColor=none;fillColor=none;spacing=5;spacingTop=-20;overflow=hidden;rounded=0;fontSize=14;fontColor=#000000;" vertex="1" parent="1">
          <mxGeometry x="155" y="1560" width="215" height="200" as="geometry" />
        </mxCell>
        <mxCell id="Y5P0Wscfw2FdqDRZ2x3u-51" value="CURSO:&lt;br&gt;CANTIDAD DE ALUMNOS&lt;br&gt;ESTADO: EN PROGRESO / FINALIZADO" style="rounded=0;html=1;fillColor=#ffe6cc;strokeColor=#d79b00;fontColor=#000000;" vertex="1" parent="1">
          <mxGeometry x="467.5" y="1605" width="280" height="80" as="geometry" />
        </mxCell>
        <mxCell id="Y5P0Wscfw2FdqDRZ2x3u-52" value="VER CURSOS / AGREGAR NOTAS" style="shape=process;html=1;backgroundOutline=1;fontColor=#333333;fillColor=#f5f5f5;strokeColor=#666666;" vertex="1" parent="1">
          <mxGeometry x="467.5" y="1685" width="280" height="60" as="geometry" />
        </mxCell>
        <mxCell id="Y5P0Wscfw2FdqDRZ2x3u-53" value="CURSO:&lt;br&gt;CANTIDAD DE ALUMNOS&lt;br&gt;ESTADO: EN PROGRESO / FINALIZADO" style="rounded=0;html=1;fillColor=#ffe6cc;strokeColor=#d79b00;fontColor=#000000;" vertex="1" parent="1">
          <mxGeometry x="467.5" y="1750" width="280" height="80" as="geometry" />
        </mxCell>
        <mxCell id="Y5P0Wscfw2FdqDRZ2x3u-54" value="VER CURSOS / AGREGAR NOTAS" style="shape=process;html=1;backgroundOutline=1;fontColor=#333333;fillColor=#f5f5f5;strokeColor=#666666;" vertex="1" parent="1">
          <mxGeometry x="467.5" y="1830" width="280" height="60" as="geometry" />
        </mxCell>
        <mxCell id="Y5P0Wscfw2FdqDRZ2x3u-55" value="" style="rounded=1;html=1;fontColor=#333333;fillColor=#f5f5f5;strokeColor=#666666;" vertex="1" parent="1">
          <mxGeometry x="127.5" y="2150" width="250" height="490" as="geometry" />
        </mxCell>
        <mxCell id="Y5P0Wscfw2FdqDRZ2x3u-56" value="" style="ellipse;html=1;aspect=fixed;fillColor=#d5e8d4;strokeColor=#82b366;" vertex="1" parent="1">
          <mxGeometry x="212.5" y="2180" width="80" height="80" as="geometry" />
        </mxCell>
        <mxCell id="Y5P0Wscfw2FdqDRZ2x3u-57" value="EDITAR PERFIL" style="rounded=1;html=1;fillColor=#dae8fc;strokeColor=#6c8ebf;fontColor=#000000;" vertex="1" parent="1">
          <mxGeometry x="155" y="2520" width="195" height="50" as="geometry" />
        </mxCell>
        <mxCell id="Y5P0Wscfw2FdqDRZ2x3u-58" value="CERRAR SESION" style="rounded=1;html=1;fillColor=#f8cecc;strokeColor=#b85450;fontColor=#000000;" vertex="1" parent="1">
          <mxGeometry x="156.25" y="2580" width="192.5" height="50" as="geometry" />
        </mxCell>
        <mxCell id="Y5P0Wscfw2FdqDRZ2x3u-59" value="" style="rounded=1;html=1;fillColor=#d5e8d4;strokeColor=#82b366;fontColor=#000000;" vertex="1" parent="1">
          <mxGeometry x="432.5" y="2150" width="350" height="490" as="geometry" />
        </mxCell>
        <mxCell id="Y5P0Wscfw2FdqDRZ2x3u-60" value="ADMINISTRADOR" style="rounded=1;html=1;fillColor=#f8cecc;strokeColor=#b85450;fontColor=#000000;" vertex="1" parent="1">
          <mxGeometry x="127.5" y="2060" width="650" height="60" as="geometry" />
        </mxCell>
        <mxCell id="Y5P0Wscfw2FdqDRZ2x3u-63" value="&lt;h1 style=&quot;font-size: 12px;&quot;&gt;&lt;font style=&quot;font-size: 12px;&quot;&gt;Nombre Apellido&lt;/font&gt;&lt;/h1&gt;&lt;p style=&quot;font-size: 12px;&quot;&gt;&lt;font style=&quot;font-size: 12px;&quot;&gt;(GRUPO AL QUE PERTENECE)&lt;/font&gt;&lt;/p&gt;&lt;p style=&quot;font-size: 12px;&quot;&gt;&lt;font style=&quot;font-size: 12px;&quot;&gt;NOMBRE DE USUARIO&lt;/font&gt;&lt;/p&gt;&lt;p style=&quot;font-size: 12px;&quot;&gt;&lt;font style=&quot;font-size: 12px;&quot;&gt;DIRECCION&lt;/font&gt;&lt;/p&gt;&lt;p style=&quot;font-size: 12px;&quot;&gt;&lt;font style=&quot;font-size: 12px;&quot;&gt;LOCALIDAD&lt;/font&gt;&lt;/p&gt;&lt;p style=&quot;font-size: 12px;&quot;&gt;&lt;font style=&quot;font-size: 12px;&quot;&gt;TELEFONO&lt;/font&gt;&lt;/p&gt;&lt;p style=&quot;font-size: 12px;&quot;&gt;&lt;font style=&quot;font-size: 12px;&quot;&gt;EMAIL&lt;/font&gt;&lt;/p&gt;" style="text;html=1;strokeColor=none;fillColor=none;spacing=5;spacingTop=-20;overflow=hidden;rounded=0;fontSize=12;fontColor=#000000;" vertex="1" parent="1">
          <mxGeometry x="137.5" y="2270" width="202.5" height="200" as="geometry" />
        </mxCell>
        <mxCell id="Y5P0Wscfw2FdqDRZ2x3u-68" value="IR AL ADMIN" style="rounded=1;html=1;fillColor=#dae8fc;strokeColor=#6c8ebf;fontColor=#000000;" vertex="1" parent="1">
          <mxGeometry x="155" y="2460" width="195" height="50" as="geometry" />
        </mxCell>
        <mxCell id="Y5P0Wscfw2FdqDRZ2x3u-69" value="CONTENIDO" style="rounded=1;whiteSpace=wrap;html=1;fillColor=#ffe6cc;strokeColor=#d79b00;fontColor=#000033;" vertex="1" parent="1">
          <mxGeometry x="450" y="2240" width="320" height="380" as="geometry" />
        </mxCell>
        <mxCell id="Y5P0Wscfw2FdqDRZ2x3u-70" value="AGREGAR USUARIO" style="rounded=0;whiteSpace=wrap;html=1;fillColor=#b0e3e6;strokeColor=#0e8088;fontColor=#000033;" vertex="1" parent="1">
          <mxGeometry x="450" y="2180" width="100" height="40" as="geometry" />
        </mxCell>
        <mxCell id="Y5P0Wscfw2FdqDRZ2x3u-71" value="AGREGAR CURSO" style="rounded=0;whiteSpace=wrap;html=1;fillColor=#b0e3e6;strokeColor=#0e8088;fontColor=#000033;" vertex="1" parent="1">
          <mxGeometry x="560" y="2180" width="100" height="40" as="geometry" />
        </mxCell>
        <mxCell id="Y5P0Wscfw2FdqDRZ2x3u-72" value="VER CURSOS" style="rounded=0;whiteSpace=wrap;html=1;fillColor=#b0e3e6;strokeColor=#0e8088;fontColor=#000033;" vertex="1" parent="1">
          <mxGeometry x="665" y="2180" width="100" height="40" as="geometry" />
        </mxCell>
      </root>
    </mxGraphModel>
  </diagram>
</mxfile>
